<svg width="41" height="42" viewBox="0 0 41 42" fill="none" xmlns="http://www.w3.org/2000/svg">
<path d="M11.41 33.7044C8.58392 33.7044 7.16411 32.3116 7.16411 29.5126V13.0023C7.16411 10.2032 8.58392 8.81046 11.41 8.81046H29.881C32.7071 8.81046 34.1134 10.2167 34.1134 13.0023V29.5126C34.1134 32.2981 32.7071 33.7044 29.881 33.7044H11.41ZM11.2072 31.5274H30.0568C31.2602 31.5274 31.9363 30.8918 31.9363 29.6343V16.8831C31.9363 15.6391 31.2602 14.99 30.0568 14.99H11.2072C10.0037 14.99 9.34115 15.6391 9.34115 16.8831V29.6343C9.34115 30.8918 10.0037 31.5274 11.2072 31.5274ZM17.9952 19.8444C17.5219 19.8444 17.3597 19.7092 17.3597 19.2359V18.4381C17.3597 17.9648 17.5219 17.8161 17.9952 17.8161H18.793C19.2663 17.8161 19.4285 17.9648 19.4285 18.4381V19.2359C19.4285 19.7092 19.2663 19.8444 18.793 19.8444H17.9952ZM22.498 19.8444C22.0112 19.8444 21.8625 19.7092 21.8625 19.2359V18.4381C21.8625 17.9648 22.0112 17.8161 22.498 17.8161H23.2823C23.7556 17.8161 23.9178 17.9648 23.9178 18.4381V19.2359C23.9178 19.7092 23.7556 19.8444 23.2823 19.8444H22.498ZM26.9873 19.8444C26.514 19.8444 26.3518 19.7092 26.3518 19.2359V18.4381C26.3518 17.9648 26.514 17.8161 26.9873 17.8161H27.7851C28.2584 17.8161 28.4071 17.9648 28.4071 18.4381V19.2359C28.4071 19.7092 28.2584 19.8444 27.7851 19.8444H26.9873ZM13.5059 24.2661C13.0326 24.2661 12.8704 24.1308 12.8704 23.6576V22.8598C12.8704 22.3865 13.0326 22.2513 13.5059 22.2513H14.3037C14.777 22.2513 14.9257 22.3865 14.9257 22.8598V23.6576C14.9257 24.1308 14.777 24.2661 14.3037 24.2661H13.5059ZM17.9952 24.2661C17.5219 24.2661 17.3597 24.1308 17.3597 23.6576V22.8598C17.3597 22.3865 17.5219 22.2513 17.9952 22.2513H18.793C19.2663 22.2513 19.4285 22.3865 19.4285 22.8598V23.6576C19.4285 24.1308 19.2663 24.2661 18.793 24.2661H17.9952ZM22.498 24.2661C22.0112 24.2661 21.8625 24.1308 21.8625 23.6576V22.8598C21.8625 22.3865 22.0112 22.2513 22.498 22.2513H23.2823C23.7556 22.2513 23.9178 22.3865 23.9178 22.8598V23.6576C23.9178 24.1308 23.7556 24.2661 23.2823 24.2661H22.498ZM26.9873 24.2661C26.514 24.2661 26.3518 24.1308 26.3518 23.6576V22.8598C26.3518 22.3865 26.514 22.2513 26.9873 22.2513H27.7851C28.2584 22.2513 28.4071 22.3865 28.4071 22.8598V23.6576C28.4071 24.1308 28.2584 24.2661 27.7851 24.2661H26.9873ZM13.5059 28.7013C13.0326 28.7013 12.8704 28.5525 12.8704 28.0793V27.2815C12.8704 26.8082 13.0326 26.673 13.5059 26.673H14.3037C14.777 26.673 14.9257 26.8082 14.9257 27.2815V28.0793C14.9257 28.5525 14.777 28.7013 14.3037 28.7013H13.5059ZM17.9952 28.7013C17.5219 28.7013 17.3597 28.5525 17.3597 28.0793V27.2815C17.3597 26.8082 17.5219 26.673 17.9952 26.673H18.793C19.2663 26.673 19.4285 26.8082 19.4285 27.2815V28.0793C19.4285 28.5525 19.2663 28.7013 18.793 28.7013H17.9952ZM22.498 28.7013C22.0112 28.7013 21.8625 28.5525 21.8625 28.0793V27.2815C21.8625 26.8082 22.0112 26.673 22.498 26.673H23.2823C23.7556 26.673 23.9178 26.8082 23.9178 27.2815V28.0793C23.9178 28.5525 23.7556 28.7013 23.2823 28.7013H22.498Z" fill="#2A2A34"/>
<path d="M11.41 33.7044C8.58392 33.7044 7.16411 32.3116 7.16411 29.5126V13.0023C7.16411 10.2032 8.58392 8.81046 11.41 8.81046H29.881C32.7071 8.81046 34.1134 10.2167 34.1134 13.0023V29.5126C34.1134 32.2981 32.7071 33.7044 29.881 33.7044H11.41ZM11.2072 31.5274H30.0568C31.2602 31.5274 31.9363 30.8918 31.9363 29.6343V16.8831C31.9363 15.6391 31.2602 14.99 30.0568 14.99H11.2072C10.0037 14.99 9.34115 15.6391 9.34115 16.8831V29.6343C9.34115 30.8918 10.0037 31.5274 11.2072 31.5274ZM17.9952 19.8444C17.5219 19.8444 17.3597 19.7092 17.3597 19.2359V18.4381C17.3597 17.9648 17.5219 17.8161 17.9952 17.8161H18.793C19.2663 17.8161 19.4285 17.9648 19.4285 18.4381V19.2359C19.4285 19.7092 19.2663 19.8444 18.793 19.8444H17.9952ZM22.498 19.8444C22.0112 19.8444 21.8625 19.7092 21.8625 19.2359V18.4381C21.8625 17.9648 22.0112 17.8161 22.498 17.8161H23.2823C23.7556 17.8161 23.9178 17.9648 23.9178 18.4381V19.2359C23.9178 19.7092 23.7556 19.8444 23.2823 19.8444H22.498ZM26.9873 19.8444C26.514 19.8444 26.3518 19.7092 26.3518 19.2359V18.4381C26.3518 17.9648 26.514 17.8161 26.9873 17.8161H27.7851C28.2584 17.8161 28.4071 17.9648 28.4071 18.4381V19.2359C28.4071 19.7092 28.2584 19.8444 27.7851 19.8444H26.9873ZM13.5059 24.2661C13.0326 24.2661 12.8704 24.1308 12.8704 23.6576V22.8598C12.8704 22.3865 13.0326 22.2513 13.5059 22.2513H14.3037C14.777 22.2513 14.9257 22.3865 14.9257 22.8598V23.6576C14.9257 24.1308 14.777 24.2661 14.3037 24.2661H13.5059ZM17.9952 24.2661C17.5219 24.2661 17.3597 24.1308 17.3597 23.6576V22.8598C17.3597 22.3865 17.5219 22.2513 17.9952 22.2513H18.793C19.2663 22.2513 19.4285 22.3865 19.4285 22.8598V23.6576C19.4285 24.1308 19.2663 24.2661 18.793 24.2661H17.9952ZM22.498 24.2661C22.0112 24.2661 21.8625 24.1308 21.8625 23.6576V22.8598C21.8625 22.3865 22.0112 22.2513 22.498 22.2513H23.2823C23.7556 22.2513 23.9178 22.3865 23.9178 22.8598V23.6576C23.9178 24.1308 23.7556 24.2661 23.2823 24.2661H22.498ZM26.9873 24.2661C26.514 24.2661 26.3518 24.1308 26.3518 23.6576V22.8598C26.3518 22.3865 26.514 22.2513 26.9873 22.2513H27.7851C28.2584 22.2513 28.4071 22.3865 28.4071 22.8598V23.6576C28.4071 24.1308 28.2584 24.2661 27.7851 24.2661H26.9873ZM13.5059 28.7013C13.0326 28.7013 12.8704 28.5525 12.8704 28.0793V27.2815C12.8704 26.8082 13.0326 26.673 13.5059 26.673H14.3037C14.777 26.673 14.9257 26.8082 14.9257 27.2815V28.0793C14.9257 28.5525 14.777 28.7013 14.3037 28.7013H13.5059ZM17.9952 28.7013C17.5219 28.7013 17.3597 28.5525 17.3597 28.0793V27.2815C17.3597 26.8082 17.5219 26.673 17.9952 26.673H18.793C19.2663 26.673 19.4285 26.8082 19.4285 27.2815V28.0793C19.4285 28.5525 19.2663 28.7013 18.793 28.7013H17.9952ZM22.498 28.7013C22.0112 28.7013 21.8625 28.5525 21.8625 28.0793V27.2815C21.8625 26.8082 22.0112 26.673 22.498 26.673H23.2823C23.7556 26.673 23.9178 26.8082 23.9178 27.2815V28.0793C23.9178 28.5525 23.7556 28.7013 23.2823 28.7013H22.498Z" fill="black" fill-opacity="0.2"/>
<path d="M11.41 33.7044C8.58392 33.7044 7.16411 32.3116 7.16411 29.5126V13.0023C7.16411 10.2032 8.58392 8.81046 11.41 8.81046H29.881C32.7071 8.81046 34.1134 10.2167 34.1134 13.0023V29.5126C34.1134 32.2981 32.7071 33.7044 29.881 33.7044H11.41ZM11.2072 31.5274H30.0568C31.2602 31.5274 31.9363 30.8918 31.9363 29.6343V16.8831C31.9363 15.6391 31.2602 14.99 30.0568 14.99H11.2072C10.0037 14.99 9.34115 15.6391 9.34115 16.8831V29.6343C9.34115 30.8918 10.0037 31.5274 11.2072 31.5274ZM17.9952 19.8444C17.5219 19.8444 17.3597 19.7092 17.3597 19.2359V18.4381C17.3597 17.9648 17.5219 17.8161 17.9952 17.8161H18.793C19.2663 17.8161 19.4285 17.9648 19.4285 18.4381V19.2359C19.4285 19.7092 19.2663 19.8444 18.793 19.8444H17.9952ZM22.498 19.8444C22.0112 19.8444 21.8625 19.7092 21.8625 19.2359V18.4381C21.8625 17.9648 22.0112 17.8161 22.498 17.8161H23.2823C23.7556 17.8161 23.9178 17.9648 23.9178 18.4381V19.2359C23.9178 19.7092 23.7556 19.8444 23.2823 19.8444H22.498ZM26.9873 19.8444C26.514 19.8444 26.3518 19.7092 26.3518 19.2359V18.4381C26.3518 17.9648 26.514 17.8161 26.9873 17.8161H27.7851C28.2584 17.8161 28.4071 17.9648 28.4071 18.4381V19.2359C28.4071 19.7092 28.2584 19.8444 27.7851 19.8444H26.9873ZM13.5059 24.2661C13.0326 24.2661 12.8704 24.1308 12.8704 23.6576V22.8598C12.8704 22.3865 13.0326 22.2513 13.5059 22.2513H14.3037C14.777 22.2513 14.9257 22.3865 14.9257 22.8598V23.6576C14.9257 24.1308 14.777 24.2661 14.3037 24.2661H13.5059ZM17.9952 24.2661C17.5219 24.2661 17.3597 24.1308 17.3597 23.6576V22.8598C17.3597 22.3865 17.5219 22.2513 17.9952 22.2513H18.793C19.2663 22.2513 19.4285 22.3865 19.4285 22.8598V23.6576C19.4285 24.1308 19.2663 24.2661 18.793 24.2661H17.9952ZM22.498 24.2661C22.0112 24.2661 21.8625 24.1308 21.8625 23.6576V22.8598C21.8625 22.3865 22.0112 22.2513 22.498 22.2513H23.2823C23.7556 22.2513 23.9178 22.3865 23.9178 22.8598V23.6576C23.9178 24.1308 23.7556 24.2661 23.2823 24.2661H22.498ZM26.9873 24.2661C26.514 24.2661 26.3518 24.1308 26.3518 23.6576V22.8598C26.3518 22.3865 26.514 22.2513 26.9873 22.2513H27.7851C28.2584 22.2513 28.4071 22.3865 28.4071 22.8598V23.6576C28.4071 24.1308 28.2584 24.2661 27.7851 24.2661H26.9873ZM13.5059 28.7013C13.0326 28.7013 12.8704 28.5525 12.8704 28.0793V27.2815C12.8704 26.8082 13.0326 26.673 13.5059 26.673H14.3037C14.777 26.673 14.9257 26.8082 14.9257 27.2815V28.0793C14.9257 28.5525 14.777 28.7013 14.3037 28.7013H13.5059ZM17.9952 28.7013C17.5219 28.7013 17.3597 28.5525 17.3597 28.0793V27.2815C17.3597 26.8082 17.5219 26.673 17.9952 26.673H18.793C19.2663 26.673 19.4285 26.8082 19.4285 27.2815V28.0793C19.4285 28.5525 19.2663 28.7013 18.793 28.7013H17.9952ZM22.498 28.7013C22.0112 28.7013 21.8625 28.5525 21.8625 28.0793V27.2815C21.8625 26.8082 22.0112 26.673 22.498 26.673H23.2823C23.7556 26.673 23.9178 26.8082 23.9178 27.2815V28.0793C23.9178 28.5525 23.7556 28.7013 23.2823 28.7013H22.498Z" fill="black" fill-opacity="0.2"/>
</svg>
