<svg width="40" height="40" viewBox="0 0 40 40" fill="none" xmlns="http://www.w3.org/2000/svg">
<circle cx="20" cy="20" r="20" fill="#ED3241"/>
<path d="M27.68 20.1818C27.68 19.6145 27.6291 19.069 27.5346 18.5454H20V21.6436H24.3055C24.1164 22.64 23.5491 23.4836 22.6982 24.0509V26.0654H25.2946C26.8073 24.6691 27.68 22.6181 27.68 20.1818Z" fill="white"/>
<path d="M20.0012 28.0001C22.1612 28.0001 23.9721 27.2874 25.2958 26.0655L22.6994 24.051C21.9867 24.531 21.0776 24.8219 20.0012 24.8219C17.9212 24.8219 16.1539 23.4183 15.5212 21.5273H12.8594V23.5928C14.1757 26.2037 16.8739 28.0001 20.0012 28.0001Z" fill="white"/>
<path d="M15.52 21.52C15.36 21.04 15.2655 20.5309 15.2655 20C15.2655 19.4691 15.36 18.96 15.52 18.48V16.4146H12.8582C12.3127 17.4909 12 18.7055 12 20C12 21.2946 12.3127 22.5091 12.8582 23.5855L14.9309 21.9709L15.52 21.52Z" fill="white"/>
<path d="M20.0012 15.1855C21.1794 15.1855 22.2267 15.5927 23.063 16.3782L25.3539 14.0873C23.9648 12.7927 22.1612 12 20.0012 12C16.8739 12 14.1757 13.7964 12.8594 16.4146L15.5212 18.48C16.1539 16.5891 17.9212 15.1855 20.0012 15.1855Z" fill="white"/>
</svg>
