<svg width="960" height="1080" viewBox="0 0 960 1080" fill="none" xmlns="http://www.w3.org/2000/svg">
<path fill-rule="evenodd" clip-rule="evenodd" d="M538.07 517.94C554.284 444.618 613.68 302.789 724.885 310.286C864.851 319.722 886.198 425.089 890.916 500.576C894.691 560.965 892.489 706.068 890.916 769.498H762.629V634.379V481.704C761.056 448.678 747.099 430.89 724.885 429.807C664.815 426.876 617.029 653.014 596.788 748.801C595.303 755.83 593.966 762.156 592.783 767.639H537.23C537.228 767.735 537.225 767.83 537.223 767.925H431.856V481.704C430.283 448.678 416.326 430.89 394.112 429.807C334.996 426.923 290.421 635.31 267.66 741.72L267.659 741.724C265.595 751.375 263.71 760.186 262.01 767.925H214.831L214.831 767.923H114.179L67 318.147H195.957L214.167 491.746C237.104 415.417 295.053 303.608 394.112 310.286C526.858 319.235 532.291 414.475 536.523 488.674L536.523 488.686C536.753 492.717 536.98 496.686 537.223 500.576C537.548 505.781 537.829 511.604 538.07 517.94Z" fill="#2A2A34"/>
</svg>
