<svg width="23" height="11" viewBox="0 0 23 11" fill="none" xmlns="http://www.w3.org/2000/svg">
<path d="M5.84727 1.09023C5.3103 0.553257 4.4397 0.553257 3.90273 1.09023C3.36576 1.6272 3.36576 2.4978 3.90273 3.03477L10.7777 9.90977C11.3147 10.4467 12.1853 10.4467 12.7223 9.90977L19.5973 3.03477C20.1342 2.4978 20.1342 1.6272 19.5973 1.09023C19.0603 0.553257 18.1897 0.553257 17.6527 1.09023L11.75 6.99296L5.84727 1.09023Z" fill="#2A2A34"/>
<path d="M5.84727 1.09023C5.3103 0.553257 4.4397 0.553257 3.90273 1.09023C3.36576 1.6272 3.36576 2.4978 3.90273 3.03477L10.7777 9.90977C11.3147 10.4467 12.1853 10.4467 12.7223 9.90977L19.5973 3.03477C20.1342 2.4978 20.1342 1.6272 19.5973 1.09023C19.0603 0.553257 18.1897 0.553257 17.6527 1.09023L11.75 6.99296L5.84727 1.09023Z" fill="black" fill-opacity="0.2"/>
<path d="M5.84727 1.09023C5.3103 0.553257 4.4397 0.553257 3.90273 1.09023C3.36576 1.6272 3.36576 2.4978 3.90273 3.03477L10.7777 9.90977C11.3147 10.4467 12.1853 10.4467 12.7223 9.90977L19.5973 3.03477C20.1342 2.4978 20.1342 1.6272 19.5973 1.09023C19.0603 0.553257 18.1897 0.553257 17.6527 1.09023L11.75 6.99296L5.84727 1.09023Z" fill="black" fill-opacity="0.2"/>
</svg>
