<svg width="26" height="29" viewBox="0 0 26 29" fill="none" xmlns="http://www.w3.org/2000/svg">
<path fill-rule="evenodd" clip-rule="evenodd" d="M0.5 21.4508C0.5 22.6517 1.36823 23.4699 2.74719 23.4699H23.2528C24.6318 23.4699 25.5 22.6517 25.5 21.4508C25.5 20.0124 24.2998 18.8115 23.1379 17.6898C22.3463 16.898 22.0781 15.3144 21.9377 13.8759C21.8866 13.0181 21.8228 12.1999 21.7079 11.4081C21.0184 11.7249 20.2395 11.8964 19.4351 11.8964C16.026 11.8964 13.2043 8.97994 13.2043 5.45642C13.2043 3.79364 13.8299 2.27601 14.8386 1.1411C14.3151 0.824376 13.6895 0.666016 13 0.666016C11.1103 0.666016 9.68029 1.98569 9.11849 3.72765C5.87538 4.94175 4.44535 8.32011 4.20276 13.0181L4.19963 13.0469C3.99636 14.9116 3.78941 16.8101 2.8621 17.6898C1.68744 18.8115 0.5 20.0124 0.5 21.4508ZM8.82482 25.3439C8.99081 27.3102 10.689 28.9993 13.0128 28.9993C15.3238 28.9993 17.022 27.3102 17.1879 25.3439H8.82482Z" fill="#2A2A34"/>
<path fill-rule="evenodd" clip-rule="evenodd" d="M0.5 21.4508C0.5 22.6517 1.36823 23.4699 2.74719 23.4699H23.2528C24.6318 23.4699 25.5 22.6517 25.5 21.4508C25.5 20.0124 24.2998 18.8115 23.1379 17.6898C22.3463 16.898 22.0781 15.3144 21.9377 13.8759C21.8866 13.0181 21.8228 12.1999 21.7079 11.4081C21.0184 11.7249 20.2395 11.8964 19.4351 11.8964C16.026 11.8964 13.2043 8.97994 13.2043 5.45642C13.2043 3.79364 13.8299 2.27601 14.8386 1.1411C14.3151 0.824376 13.6895 0.666016 13 0.666016C11.1103 0.666016 9.68029 1.98569 9.11849 3.72765C5.87538 4.94175 4.44535 8.32011 4.20276 13.0181L4.19963 13.0469C3.99636 14.9116 3.78941 16.8101 2.8621 17.6898C1.68744 18.8115 0.5 20.0124 0.5 21.4508ZM8.82482 25.3439C8.99081 27.3102 10.689 28.9993 13.0128 28.9993C15.3238 28.9993 17.022 27.3102 17.1879 25.3439H8.82482Z" fill="black" fill-opacity="0.2"/>
<path fill-rule="evenodd" clip-rule="evenodd" d="M0.5 21.4508C0.5 22.6517 1.36823 23.4699 2.74719 23.4699H23.2528C24.6318 23.4699 25.5 22.6517 25.5 21.4508C25.5 20.0124 24.2998 18.8115 23.1379 17.6898C22.3463 16.898 22.0781 15.3144 21.9377 13.8759C21.8866 13.0181 21.8228 12.1999 21.7079 11.4081C21.0184 11.7249 20.2395 11.8964 19.4351 11.8964C16.026 11.8964 13.2043 8.97994 13.2043 5.45642C13.2043 3.79364 13.8299 2.27601 14.8386 1.1411C14.3151 0.824376 13.6895 0.666016 13 0.666016C11.1103 0.666016 9.68029 1.98569 9.11849 3.72765C5.87538 4.94175 4.44535 8.32011 4.20276 13.0181L4.19963 13.0469C3.99636 14.9116 3.78941 16.8101 2.8621 17.6898C1.68744 18.8115 0.5 20.0124 0.5 21.4508ZM8.82482 25.3439C8.99081 27.3102 10.689 28.9993 13.0128 28.9993C15.3238 28.9993 17.022 27.3102 17.1879 25.3439H8.82482Z" fill="black" fill-opacity="0.2"/>
<path d="M19.4479 9.99609C17.0347 9.99609 15.0557 7.9374 15.0557 5.45642C15.0557 2.96224 17.0347 0.916753 19.4479 0.916753C21.8483 0.916753 23.8401 2.96224 23.8401 5.45642C23.8401 7.9374 21.8483 9.99609 19.4479 9.99609Z" fill="#DB2D37"/>
</svg>
