
<svg width="36" height="28" viewBox="0 0 36 28" fill="none" xmlns="http://www.w3.org/2000/svg">
<path d="M2 6H20M28 6H34M16 22H34M2 22H8" stroke="#A9A9D3" stroke-width="3" stroke-linecap="round" stroke-linejoin="round"/>
<path d="M2 6H20M28 6H34M16 22H34M2 22H8" stroke="#A9A9D3" stroke-opacity="0.2" stroke-width="3" stroke-linecap="round" stroke-linejoin="round"/>
<path d="M2 6H20M28 6H34M16 22H34M2 22H8" stroke="#A9A9D3" stroke-opacity="0.2" stroke-width="3" stroke-linecap="round" stroke-linejoin="round"/>
<path d="M12 26C14.2091 26 16 24.2091 16 22C16 19.7909 14.2091 18 12 18C9.79086 18 8 19.7909 8 22C8 24.2091 9.79086 26 12 26Z" stroke="#A9A9D3" stroke-width="3"/>
<path d="M12 26C14.2091 26 16 24.2091 16 22C16 19.7909 14.2091 18 12 18C9.79086 18 8 19.7909 8 22C8 24.2091 9.79086 26 12 26Z" stroke="A9A9D3" stroke-opacity="0.2" stroke-width="3"/>
<path d="M12 26C14.2091 26 16 24.2091 16 22C16 19.7909 14.2091 18 12 18C9.79086 18 8 19.7909 8 22C8 24.2091 9.79086 26 12 26Z" stroke="A9A9D3" stroke-opacity="0.2" stroke-width="3"/>
<path d="M24 10C26.2091 10 28 8.20914 28 6C28 3.79086 26.2091 2 24 2C21.7909 2 20 3.79086 20 6C20 8.20914 21.7909 10 24 10Z" stroke="#A9A9D3" stroke-width="3"/>
<path d="M24 10C26.2091 10 28 8.20914 28 6C28 3.79086 26.2091 2 24 2C21.7909 2 20 3.79086 20 6C20 8.20914 21.7909 10 24 10Z" stroke="A9A9D3" stroke-opacity="0.2" stroke-width="3"/>
<path d="M24 10C26.2091 10 28 8.20914 28 6C28 3.79086 26.2091 2 24 2C21.7909 2 20 3.79086 20 6C20 8.20914 21.7909 10 24 10Z" stroke="A9A9D3" stroke-opacity="0.2" stroke-width="3"/>
</svg>
