<svg width="26" height="26" viewBox="0 0 26 26" fill="none" xmlns="http://www.w3.org/2000/svg">
<path d="M1.16553 14.5707C0.613243 14.5707 0.165527 14.123 0.165527 13.5707V12.4037C0.165527 11.8514 0.613243 11.4037 1.16553 11.4037H10.4035C10.9558 11.4037 11.4035 10.9559 11.4035 10.4037V1.47217C11.4035 0.919883 11.8512 0.472168 12.4035 0.472168H13.5706C14.1229 0.472168 14.5706 0.919883 14.5706 1.47217V10.4037C14.5706 10.9559 15.0183 11.4037 15.5706 11.4037H24.8341C25.3864 11.4037 25.8341 11.8514 25.8341 12.4037V13.5707C25.8341 14.123 25.3864 14.5707 24.8341 14.5707H15.5706C15.0183 14.5707 14.5706 15.0184 14.5706 15.5707V24.5278C14.5706 25.08 14.1229 25.5278 13.5706 25.5278H12.4035C11.8512 25.5278 11.4035 25.08 11.4035 24.5278V15.5707C11.4035 15.0184 10.9558 14.5707 10.4035 14.5707H1.16553Z" fill="#2A2A34"/>
<path d="M1.16553 14.5707C0.613243 14.5707 0.165527 14.123 0.165527 13.5707V12.4037C0.165527 11.8514 0.613243 11.4037 1.16553 11.4037H10.4035C10.9558 11.4037 11.4035 10.9559 11.4035 10.4037V1.47217C11.4035 0.919883 11.8512 0.472168 12.4035 0.472168H13.5706C14.1229 0.472168 14.5706 0.919883 14.5706 1.47217V10.4037C14.5706 10.9559 15.0183 11.4037 15.5706 11.4037H24.8341C25.3864 11.4037 25.8341 11.8514 25.8341 12.4037V13.5707C25.8341 14.123 25.3864 14.5707 24.8341 14.5707H15.5706C15.0183 14.5707 14.5706 15.0184 14.5706 15.5707V24.5278C14.5706 25.08 14.1229 25.5278 13.5706 25.5278H12.4035C11.8512 25.5278 11.4035 25.08 11.4035 24.5278V15.5707C11.4035 15.0184 10.9558 14.5707 10.4035 14.5707H1.16553Z" fill="black" fill-opacity="0.2"/>
<path d="M1.16553 14.5707C0.613243 14.5707 0.165527 14.123 0.165527 13.5707V12.4037C0.165527 11.8514 0.613243 11.4037 1.16553 11.4037H10.4035C10.9558 11.4037 11.4035 10.9559 11.4035 10.4037V1.47217C11.4035 0.919883 11.8512 0.472168 12.4035 0.472168H13.5706C14.1229 0.472168 14.5706 0.919883 14.5706 1.47217V10.4037C14.5706 10.9559 15.0183 11.4037 15.5706 11.4037H24.8341C25.3864 11.4037 25.8341 11.8514 25.8341 12.4037V13.5707C25.8341 14.123 25.3864 14.5707 24.8341 14.5707H15.5706C15.0183 14.5707 14.5706 15.0184 14.5706 15.5707V24.5278C14.5706 25.08 14.1229 25.5278 13.5706 25.5278H12.4035C11.8512 25.5278 11.4035 25.08 11.4035 24.5278V15.5707C11.4035 15.0184 10.9558 14.5707 10.4035 14.5707H1.16553Z" fill="black" fill-opacity="0.2"/>
</svg>
