<svg width="20" height="21" viewBox="0 0 20 21" fill="none" xmlns="http://www.w3.org/2000/svg">
<path d="M13.4496 2.96621L5.92461 5.46621C0.866276 7.15788 0.866276 9.91621 5.92461 11.5995L8.15794 12.3412L8.89961 14.5745C10.5829 19.6329 13.3496 19.6329 15.0329 14.5745L17.5413 7.05788C18.6579 3.68288 16.8246 1.84121 13.4496 2.96621ZM13.7163 7.44955L10.5496 10.6329C10.4246 10.7579 10.2663 10.8162 10.1079 10.8162C9.94961 10.8162 9.79128 10.7579 9.66628 10.6329C9.42461 10.3912 9.42461 9.99121 9.66628 9.74955L12.8329 6.56621C13.0746 6.32455 13.4746 6.32455 13.7163 6.56621C13.9579 6.80788 13.9579 7.20788 13.7163 7.44955Z" fill="#2A2A34"/>
<path d="M13.4496 2.96621L5.92461 5.46621C0.866276 7.15788 0.866276 9.91621 5.92461 11.5995L8.15794 12.3412L8.89961 14.5745C10.5829 19.6329 13.3496 19.6329 15.0329 14.5745L17.5413 7.05788C18.6579 3.68288 16.8246 1.84121 13.4496 2.96621ZM13.7163 7.44955L10.5496 10.6329C10.4246 10.7579 10.2663 10.8162 10.1079 10.8162C9.94961 10.8162 9.79128 10.7579 9.66628 10.6329C9.42461 10.3912 9.42461 9.99121 9.66628 9.74955L12.8329 6.56621C13.0746 6.32455 13.4746 6.32455 13.7163 6.56621C13.9579 6.80788 13.9579 7.20788 13.7163 7.44955Z" fill="black" fill-opacity="0.2"/>
<path d="M13.4496 2.96621L5.92461 5.46621C0.866276 7.15788 0.866276 9.91621 5.92461 11.5995L8.15794 12.3412L8.89961 14.5745C10.5829 19.6329 13.3496 19.6329 15.0329 14.5745L17.5413 7.05788C18.6579 3.68288 16.8246 1.84121 13.4496 2.96621ZM13.7163 7.44955L10.5496 10.6329C10.4246 10.7579 10.2663 10.8162 10.1079 10.8162C9.94961 10.8162 9.79128 10.7579 9.66628 10.6329C9.42461 10.3912 9.42461 9.99121 9.66628 9.74955L12.8329 6.56621C13.0746 6.32455 13.4746 6.32455 13.7163 6.56621C13.9579 6.80788 13.9579 7.20788 13.7163 7.44955Z" fill="black" fill-opacity="0.2"/>
</svg>
