<svg width="58" height="32" viewBox="0 0 58 32" fill="none" xmlns="http://www.w3.org/2000/svg">
<path d="M9.4861 0.575512L0.5 0.611462L3.78063 31.8779L14.0021 31.8672C15.621 24.4153 19.1268 8.6402 23.7087 8.6402C24.8541 8.6402 25.7559 12.5352 25.7559 31.8893L36.8123 31.8261C38.4155 24.2705 42.3798 8.6402 46.0453 8.6402C48.3363 8.6402 48.5828 10.8027 48.5828 32H57.5V14.4003C57.5 4.60811 52.9181 0 44.8998 0C37.4947 0 34.4386 9.92242 33.0741 14.3525L33.0519 14.4244C33.6247 4.63221 30.0087 0 22.5632 0C16.6068 0 12.3337 6.68509 10.72 12.6037L9.4861 0.575512Z" fill="#2A2A34"/>
<path d="M9.4861 0.575512L0.5 0.611462L3.78063 31.8779L14.0021 31.8672C15.621 24.4153 19.1268 8.6402 23.7087 8.6402C24.8541 8.6402 25.7559 12.5352 25.7559 31.8893L36.8123 31.8261C38.4155 24.2705 42.3798 8.6402 46.0453 8.6402C48.3363 8.6402 48.5828 10.8027 48.5828 32H57.5V14.4003C57.5 4.60811 52.9181 0 44.8998 0C37.4947 0 34.4386 9.92242 33.0741 14.3525L33.0519 14.4244C33.6247 4.63221 30.0087 0 22.5632 0C16.6068 0 12.3337 6.68509 10.72 12.6037L9.4861 0.575512Z" fill="black" fill-opacity="0.2"/>
<path d="M9.4861 0.575512L0.5 0.611462L3.78063 31.8779L14.0021 31.8672C15.621 24.4153 19.1268 8.6402 23.7087 8.6402C24.8541 8.6402 25.7559 12.5352 25.7559 31.8893L36.8123 31.8261C38.4155 24.2705 42.3798 8.6402 46.0453 8.6402C48.3363 8.6402 48.5828 10.8027 48.5828 32H57.5V14.4003C57.5 4.60811 52.9181 0 44.8998 0C37.4947 0 34.4386 9.92242 33.0741 14.3525L33.0519 14.4244C33.6247 4.63221 30.0087 0 22.5632 0C16.6068 0 12.3337 6.68509 10.72 12.6037L9.4861 0.575512Z" fill="black" fill-opacity="0.2"/>
</svg>
