<svg width="16" height="24" viewBox="0 0 16 24" fill="none" xmlns="http://www.w3.org/2000/svg">
<path d="M6.3833 16.8767C7.76953 16.8767 9.04785 16.4285 10.0938 15.6814L14.0283 19.616C14.2109 19.7986 14.4517 19.8899 14.709 19.8899C15.2485 19.8899 15.6304 19.4749 15.6304 18.9436C15.6304 18.6946 15.5474 18.4539 15.3647 18.2795L11.4551 14.3616C12.2769 13.2825 12.7666 11.946 12.7666 10.4934C12.7666 6.98218 9.89453 4.11011 6.3833 4.11011C2.88037 4.11011 0 6.97388 0 10.4934C0 14.0046 2.87207 16.8767 6.3833 16.8767ZM6.3833 15.4988C3.64404 15.4988 1.37793 13.2327 1.37793 10.4934C1.37793 7.75415 3.64404 5.48804 6.3833 5.48804C9.12256 5.48804 11.3887 7.75415 11.3887 10.4934C11.3887 13.2327 9.12256 15.4988 6.3833 15.4988Z" fill="#D3D3D3"/>
</svg>
