<svg width="66" height="36" viewBox="0 0 66 36" fill="none" xmlns="http://www.w3.org/2000/svg">
<rect x="0.645508" y="0.494385" width="65.3545" height="35.0114" rx="17.5057" fill="#2A2A34"/>
<path d="M27.6331 18.0001C29.8084 18.0001 31.5719 16.2367 31.5719 14.0613C31.5719 11.886 29.8084 10.1226 27.6331 10.1226C25.4578 10.1226 23.6943 11.886 23.6943 14.0613C23.6943 16.2367 25.4578 18.0001 27.6331 18.0001Z" fill="white"/>
<path d="M32.1191 20.1883C30.5786 19.4061 28.8784 19.0942 27.6333 19.0942C25.1945 19.0942 20.1934 20.5899 20.1934 23.5801V25.8777H28.3991V24.9986C28.3991 23.9592 28.8368 22.917 29.6027 22.0483C30.2137 21.3547 31.0693 20.7108 32.1191 20.1883Z" fill="white"/>
<path d="M37.9178 19.7507C35.0693 19.7507 29.3838 21.5101 29.3838 25.0024V27.6283H46.4518V25.0024C46.4518 21.5101 40.7663 19.7507 37.9178 19.7507Z" fill="white"/>
<path d="M37.9176 18C40.5763 18 42.7316 15.8446 42.7316 13.1859C42.7316 10.5272 40.5763 8.37183 37.9176 8.37183C35.2588 8.37183 33.1035 10.5272 33.1035 13.1859C33.1035 15.8446 35.2588 18 37.9176 18Z" fill="white"/>
</svg>
